<?xml version="1.0" standalone="no"?>
<!DOCTYPE svg PUBLIC "-//W3C//DTD SVG 20010904//EN"
 "http://www.w3.org/TR/2001/REC-SVG-20010904/DTD/svg10.dtd">
<svg version="1.0" xmlns="http://www.w3.org/2000/svg"
 width="661.000000pt" height="661.000000pt" viewBox="0 0 661.000000 661.000000"
 preserveAspectRatio="xMidYMid meet">
<metadata>
Created by potrace 1.11, written by Peter Selinger 2001-2013
</metadata>
<g transform="translate(0.000000,661.000000) scale(0.100000,-0.100000)"
fill="#000000" stroke="none">
<path d="M1958 4254 c-2 -1 -39 -6 -83 -9 -44 -4 -82 -8 -85 -10 -3 -2 -29 -6
-59 -10 -57 -7 -63 -8 -151 -26 -515 -103 -1060 -372 -1435 -709 -38 -35 -65
-61 -60 -59 6 2 60 29 120 60 102 51 241 104 375 142 60 17 83 22 175 38 33 5
71 12 85 14 101 18 391 24 510 10 36 -4 81 -9 100 -11 19 -2 46 -6 60 -9 14
-3 43 -7 65 -11 81 -11 308 -74 397 -110 198 -79 442 -233 662 -418 l47 -40
-78 -43 c-160 -89 -663 -333 -798 -388 -77 -31 -149 -60 -160 -65 -47 -22
-331 -112 -455 -144 -204 -54 -526 -104 -628 -97 -13 0 -31 -3 -40 -8 -17 -10
486 -7 578 3 25 3 74 8 110 11 62 5 79 7 180 20 80 11 114 16 200 32 47 8 96
17 110 19 111 19 450 111 606 165 299 103 651 262 954 431 25 14 137 77 250
140 113 63 232 129 265 148 33 18 94 52 135 75 433 242 878 450 1190 555 69
23 132 45 140 48 8 3 20 6 25 7 6 2 42 12 80 23 91 27 272 68 360 82 39 6 81
13 95 15 23 4 96 12 190 20 19 2 62 4 94 4 33 1 57 4 53 7 -6 7 -455 6 -562 0
-38 -3 -95 -8 -125 -11 -30 -3 -78 -7 -105 -10 -28 -2 -64 -6 -80 -9 -17 -3
-68 -10 -115 -16 -396 -52 -935 -216 -1342 -407 l-98 -46 -32 27 c-265 215
-472 341 -711 432 -88 34 -277 88 -347 99 -19 3 -42 8 -50 10 -8 2 -42 7 -75
11 -33 3 -69 8 -80 11 -21 5 -453 12 -457 7z"/>
<path d="M3995 3335 c-279 -156 -458 -255 -464 -255 -4 0 -12 -5 -19 -12 -12
-12 -103 -62 -344 -191 -65 -34 -118 -65 -118 -69 0 -16 229 -157 365 -223
203 -100 335 -143 609 -201 11 -3 41 -7 66 -10 25 -2 56 -7 70 -9 95 -16 400
-22 518 -10 31 3 82 8 112 11 236 23 609 119 815 209 349 151 564 281 822 494
50 42 94 81 96 86 3 6 -50 -17 -117 -50 -137 -67 -355 -143 -466 -161 -14 -3
-36 -7 -50 -9 -59 -12 -75 -14 -133 -21 -34 -3 -75 -8 -92 -10 -39 -4 -312 -5
-350 0 -16 2 -61 6 -100 10 -38 4 -77 9 -85 11 -8 2 -35 7 -60 10 -25 4 -92
18 -150 31 -320 75 -564 180 -783 338 -43 31 -84 56 -90 55 -7 -1 -30 -11 -52
-24z"/>
</g>
</svg>
